<?xml version="1.0" standalone="no"?>
<!DOCTYPE svg PUBLIC "-//W3C//DTD SVG 20010904//EN"
 "http://www.w3.org/TR/2001/REC-SVG-20010904/DTD/svg10.dtd">
<svg version="1.0" xmlns="http://www.w3.org/2000/svg"
 width="431.000000pt" height="431.000000pt" viewBox="0 0 431.000000 431.000000"
 preserveAspectRatio="xMidYMid meet">
<metadata>
Created by potrace 1.14, written by Peter Selinger 2001-2017
</metadata>
<g transform="translate(0.000000,431.000000) scale(0.100000,-0.100000)"
fill="#000000" stroke="none">
<path d="M1301 3546 c-41 -41 -51 -58 -51 -85 0 -36 -2 -36 -75 -16 -15 4 -34
-8 -73 -46 l-52 -52 2 -1000 3 -1001 98 -24 97 -24 0 -102 0 -101 348 -93
c191 -51 390 -104 442 -118 162 -43 462 -123 535 -144 l70 -19 53 52 c42 42
52 58 52 85 0 31 2 34 25 28 14 -3 35 -9 48 -12 18 -4 34 6 75 45 l52 50 0
1000 0 999 -32 10 c-18 6 -63 18 -100 28 l-68 17 0 103 c0 79 -3 104 -13 104
-7 0 -231 59 -498 131 -266 71 -492 132 -501 134 -10 2 -62 16 -115 30 -54 15
-137 37 -185 50 l-86 22 -51 -51z m518 -402 c135 -37 332 -90 436 -118 l190
-51 3 -38 c2 -27 0 -36 -10 -32 -7 3 -139 39 -293 80 -154 41 -351 94 -437
118 l-158 42 0 33 c0 18 5 32 12 32 6 0 122 -30 257 -66z m-371 -302 c1 -111
4 -202 6 -202 2 0 113 -30 247 -66 134 -36 300 -80 369 -98 298 -79 363 -97
370 -101 4 -2 30 20 58 49 l51 53 3 135 3 135 48 -14 47 -14 0 -735 c0 -634
-2 -735 -14 -731 -8 3 -31 9 -50 13 l-36 6 0 102 0 103 -97 26 -98 26 -53 -52
-53 -52 3 -99 3 -100 95 -25 95 -26 3 -36 3 -36 -198 53 c-109 30 -312 84
-450 121 l-253 67 0 34 c0 34 0 34 38 27 20 -4 42 -8 48 -9 7 0 35 21 63 47
l51 48 0 103 c0 75 -3 103 -12 103 -7 0 -52 11 -100 23 l-86 24 -51 -52 c-41
-42 -51 -59 -51 -86 l0 -34 -47 12 -48 12 -3 736 -2 736 47 -12 48 -12 3 -202z"/>
<path d="M1498 2489 l-48 -49 0 -99 0 -99 83 -22 c45 -12 89 -23 98 -26 9 -2
36 17 67 48 l53 53 -3 99 -3 99 -85 23 c-47 13 -92 23 -100 23 -8 0 -36 -22
-62 -50z"/>
<path d="M1901 2386 l-51 -52 0 -100 0 -101 43 -10 c23 -6 67 -18 97 -26 l55
-16 53 52 52 51 0 101 0 100 -99 26 -100 26 -50 -51z"/>
<path d="M2302 2277 l-53 -53 3 -99 3 -99 98 -26 97 -25 50 50 49 50 1 101 0
101 -82 22 c-46 12 -90 24 -98 27 -9 2 -37 -18 -68 -49z"/>
<path d="M1498 2090 l-48 -49 0 -100 0 -100 38 -10 c20 -5 64 -17 97 -25 l60
-15 45 42 c24 23 48 47 52 52 5 6 7 55 6 109 l-3 99 -85 23 c-47 13 -92 23
-100 23 -8 0 -36 -22 -62 -49z"/>
<path d="M1900 1985 l-50 -51 0 -100 0 -100 99 -25 100 -26 50 51 51 52 0 100
0 99 -100 26 -99 26 -51 -52z"/>
<path d="M2302 1877 l-53 -53 3 -99 3 -98 96 -27 97 -27 51 52 51 51 0 101 0
100 -87 23 c-49 13 -93 25 -98 27 -6 2 -34 -21 -63 -50z"/>
<path d="M1901 1586 l-51 -52 0 -100 0 -101 43 -10 c23 -6 67 -18 97 -26 l55
-16 53 52 52 51 0 101 0 100 -99 26 -100 26 -50 -51z"/>
</g>
</svg>
